<?xml version="1.0" encoding="UTF-8" standalone="no"?>
<svg
   xmlns:dc="http://purl.org/dc/elements/1.1/"
   xmlns:cc="http://creativecommons.org/ns#"
   xmlns:rdf="http://www.w3.org/1999/02/22-rdf-syntax-ns#"
   xmlns:svg="http://www.w3.org/2000/svg"
   xmlns="http://www.w3.org/2000/svg"
   viewBox="0 0 815.69336 743.29333"
   height="743.29333"
   width="815.69336"
   xml:space="preserve"
   id="svg2"
   version="1.1"><metadata
     id="metadata8"><rdf:RDF><cc:Work
         rdf:about=""><dc:format>image/svg+xml</dc:format><dc:type
           rdf:resource="http://purl.org/dc/dcmitype/StillImage" /></cc:Work></rdf:RDF></metadata><defs
     id="defs6" /><g
     transform="matrix(1.3333333,0,0,-1.3333333,0,743.29333)"
     id="g10"><g
       transform="scale(0.1)"
       id="g12"><path
         id="path14"
         style="fill:#ffffff;fill-opacity:1;fill-rule:nonzero;stroke:none"
         d="m 1611.56,3067.27 c 170.72,-261.63 256.78,-561.08 283.58,-764.21 h 311.74 c -26.11,248.19 -126.24,611.85 -335.94,933.39 -249.41,382.52 -574.27,584.85 -939.198,585.02 h -2.215 c -278.328,0 -538.761,-125.05 -714.769,-343.25 -185.1017,-229.37 -255.1135,-526 -192.1642,-813.91 l 302.4262,66.2 c -42.2,192.77 6.691,399.64 130.609,553.3 118.766,147.06 286.891,228.03 474,228.03 h 1.566 c 322.915,-0.2 548.255,-241.86 680.365,-444.57" /><path
         id="path16"
         style="fill:#ffffff;fill-opacity:1;fill-rule:nonzero;stroke:none"
         d="M 3861.73,898.242 C 3740.51,1065.99 3652.2,1266.76 3613.22,1459.94 h -314.58 c 24.17,-150.82 88.24,-399.89 257.09,-662.542 C 3449.94,620.219 3260.02,445.41 3059.19,340.84 c -0.09,0.039 -0.2,0.101 -0.33,0.172 -0.11,-0.071 -0.21,-0.133 -0.31,-0.172 -200.83,104.57 -390.74,279.379 -496.53,456.558 168.84,262.652 232.92,511.722 257.09,662.542 h -314.58 c -38.98,-193.18 -127.3,-393.95 -248.52,-561.698 l -52.64,-73.152 37.55,-82.051 c 131.43,-286.738 434.94,-574.32 755.26,-715.5077 l 62.23,-27.5195812 0.45,0.1992192 0.44,-0.1992192 62.27,27.5195812 C 3441.84,168.719 3745.4,456.301 3876.79,743.039 l 37.59,82.051 -52.65,73.152" /><path
         id="path18"
         style="fill:#ffffff;fill-opacity:1;fill-rule:nonzero;stroke:none"
         d="M 4506.19,3067.27 C 4335.46,2805.64 4249.4,2506.19 4222.6,2303.06 h -311.74 c 26.12,248.19 126.24,611.85 335.95,933.39 249.41,382.52 574.26,584.85 939.19,585.02 h 2.22 c 278.33,0 538.76,-125.05 714.77,-343.25 185.06,-229.37 255.08,-526 192.16,-813.91 l -302.42,66.2 c 42.19,192.77 -6.69,399.64 -130.62,553.3 -118.76,147.06 -286.88,228.03 -473.99,228.03 h -1.57 c -322.91,-0.2 -548.25,-241.86 -680.36,-444.57" /><path
         id="path20"
         style="fill:#ffffff;fill-opacity:1;fill-rule:nonzero;stroke:none"
         d="m 2517.81,2303.06 h 311.71 c -38.89,359.16 -179.77,672.14 -304.64,949.34 -124.71,276.58 -242.41,537.9 -240.71,798.34 2.6,299.45 173.35,604.71 456.87,816.98 49.66,37.41 190.89,145.76 317.82,262.31 126.96,-116.55 268.15,-224.9 317.85,-262.31 283.51,-212.27 454.27,-517.53 456.86,-816.98 1.71,-260.44 -116,-521.76 -240.7,-798.34 -124.88,-277.2 -265.77,-590.18 -304.64,-949.34 h 311.71 c 38.54,296.6 158.83,563.48 275.35,822.18 138.81,308.22 269.99,599.42 267.98,927.82 -3.59,395.86 -220.67,792.74 -580.78,1062.3 -42.47,32.12 -263.41,200.48 -390.4,337.23 l -113.23,122.09 -113.21,-122.09 c -126.99,-136.75 -347.93,-305.11 -390.39,-337.23 -360.12,-269.56 -577.2,-666.44 -580.78,-1062.3 -2.02,-328.4 129.14,-619.6 267.98,-927.82 116.51,-258.7 236.81,-525.58 275.35,-822.18" /><path
         id="path22"
         style="fill:#ffffff;fill-opacity:1;fill-rule:nonzero;stroke:none"
         d="m 1290.33,2029.93 v -296.79 h 3537.09 v 296.79 H 1290.33 v 0" /></g></g></svg>